<svg width="37" height="21" viewBox="0 0 37 21" fill="none" xmlns="http://www.w3.org/2000/svg">
<path d="M32.0472 10.1553L31.6688 10.5047C30.6038 11.1523 29.4695 11.6394 28.2423 11.88C27.9968 11.9282 27.7216 11.8373 27.4632 11.7908C27.4356 11.7861 27.4292 11.6629 27.427 11.6535C26.5524 11.5775 25.649 11.4172 24.7521 11.4453C23.8685 11.473 22.9922 11.7013 22.1094 11.8211C21.8996 11.8497 21.6416 11.8638 21.4692 11.7712C20.9205 11.4726 20.4024 11.1211 19.8352 10.814C19.9814 10.9582 20.1461 11.0887 20.2712 11.2491C20.8732 12.0225 21.6958 12.1223 22.6121 12.1074C23.704 12.0893 24.7961 12.1356 25.8825 12.246C26.6642 12.3258 27.2202 12.7929 27.4816 13.5684C27.8656 14.7086 27.1377 15.9572 25.9337 16.1547C25.3949 16.243 24.8454 16.2669 24.2176 16.3283L24.5397 16.5617C23.6367 16.943 23.0876 17.835 22.1017 18.0056C21.2262 18.1571 20.3387 18.2492 19.4654 18.4036C18.7727 18.5256 18.0895 18.7022 17.4015 18.8554C17.1375 18.9151 16.8756 18.9833 16.5153 19.0755L17.0644 17.9408L16.9741 17.8904C16.7961 18.2245 16.6056 18.5525 16.4444 18.8942C16.3093 19.18 16.1747 19.4223 15.7938 19.4219C15.7078 19.4219 15.6351 19.616 15.5358 19.6944C15.0447 20.0822 14.5468 20.4623 14.0519 20.8424C14.0519 20.8424 14.0218 20.8129 14.027 20.7967C14.3387 19.8676 14.0175 19.2098 13.21 18.6779C12.7486 18.3738 12.3603 17.9527 11.9764 17.5475C11.8629 17.4276 11.7936 17.1508 11.8568 17.0172C11.9084 16.9093 12.1892 16.8692 12.3685 16.8675C13.2147 16.8607 14.0605 16.8773 14.9054 16.8321L12.8574 16.7374L12.8677 16.6798L17.024 15.0691C15.476 15.1083 14.9656 14.3597 14.1727 13.3743L15.9305 13.033L15.9137 12.9149L12.9683 13.2024C12.7671 13.222 12.5663 13.245 12.3664 13.263C11.7033 13.3244 11.6827 13.3099 11.5417 12.6201C11.3189 14.0163 10.1227 14.1643 9.1806 14.6118C8.94841 14.7218 8.693 14.788 8.44275 14.8554C7.74832 15.0431 7.10678 15.3088 6.6553 15.9376C6.76595 15.4766 6.8766 15.0153 6.98725 14.5538L6.89222 14.5307C6.75247 15.0081 6.60155 15.4833 6.47514 15.964C6.19522 17.0305 5.46682 17.7885 4.66919 18.465C4.46882 18.6357 4.02422 18.5346 3.69098 18.5316C3.38096 18.5286 3.06922 18.4523 2.76264 18.4736C1.51224 18.5589 0.389549 17.4417 0.486295 16.1321C0.64152 16.3198 0.777826 16.4845 0.867693 16.5937C0.815234 16.1671 0.706448 15.7021 0.725798 15.2431C0.733968 15.0396 0.96358 14.7278 1.15578 14.6672C3.09072 14.0598 4.72466 12.9494 6.29841 11.6467C6.31002 11.7614 6.32249 11.8348 6.32292 11.9081C6.32335 11.9815 6.31088 12.0438 6.39387 12.1321C6.45278 11.8693 6.54909 11.6087 6.56285 11.3438C6.58822 10.8554 6.81439 10.5209 7.26201 10.3567C7.87259 10.1332 8.32665 9.72962 8.67709 9.20493C9.08472 8.59578 9.67079 8.32234 10.3936 8.23788L10.6911 9.06459C10.7367 8.99804 10.7608 8.97927 10.7569 8.9669C10.4762 8.14105 10.4895 8.12015 11.3654 8.0327C12.0103 7.96786 12.6588 7.84799 13.3046 7.85311C14.2437 7.85993 14.7868 7.29856 15.2782 6.64419C15.556 6.27435 15.903 6.24535 16.1812 6.61903C16.2552 6.71885 16.336 6.81312 16.3751 6.86175C18.562 5.11833 20.9033 4.48316 23.5894 5.47836L23.1951 5.00828C23.6913 4.85983 24.1351 4.74721 24.5642 4.59322C24.9422 4.45757 25.3296 4.31765 25.6671 4.10735C26.4501 3.61934 26.9141 2.95559 26.7081 1.90877L27.7057 2.95772C28.2285 2.62969 28.6086 2.83999 28.643 3.49393C28.1176 3.5545 27.9912 3.93544 27.9981 4.38036C28.0032 4.76428 27.9951 5.16568 28.0987 5.52913C28.2956 6.21847 28.0776 6.78368 27.6442 7.27382C27.3002 7.66499 26.8767 7.9909 26.4733 8.35946C27.4421 7.96829 27.9877 7.22178 28.3223 6.29483C28.3653 6.17624 28.2982 6.01798 28.2793 5.87849C28.2208 5.42547 28.1197 4.97287 28.1124 4.51899C28.1021 3.83647 28.4319 3.61209 29.0214 3.91965C29.3044 4.06682 29.4235 3.9798 29.586 3.81258C29.6806 4.13934 29.7752 4.4661 29.8405 4.69261L29.9665 3.41587L29.5925 3.82197L29.2889 3.8514C29.0421 3.36937 29.3392 3.04347 29.6372 2.7423C29.964 2.41512 30.1996 2.06319 30.228 1.58799C30.2365 1.53513 30.2562 1.48467 30.2859 1.43996C30.3155 1.39524 30.3544 1.35729 30.4 1.32863C30.7869 1.11534 31.1851 0.920395 31.579 0.719904C31.5523 0.701988 31.4831 0.656771 31.3821 0.591931C32.758 0.0228786 33.9731 0.286077 35.1315 1.17975C35.1315 1.03131 35.1315 0.94855 35.1315 0.844039C35.7989 1.35849 36.179 1.92285 36.3316 2.62329L36.0354 2.49532L36.0977 3.12579L36.1837 2.78197L36.3157 2.74614L36.787 4.21229C36.5423 4.20845 36.3213 4.14872 36.1613 4.22124C36.0491 4.27243 36.0199 4.50363 35.9463 4.66573C35.7623 4.64057 35.7623 4.64057 35.4188 4.20546C35.4067 4.4661 35.4725 4.85087 35.3568 5.17166C35.0988 5.88404 34.966 5.92883 34.1782 5.74412C33.882 5.67459 33.667 5.67203 33.6094 5.92968L34.6057 5.87636C34.3709 6.5239 33.9964 6.92488 33.4722 7.21965C32.9734 7.50076 32.4974 7.82325 32.0197 8.13977C31.729 8.33216 31.4577 8.36501 31.1331 8.19864C30.3441 7.79553 29.948 7.14627 29.8302 6.29696C29.804 6.10585 29.7477 5.91859 29.7055 5.72962L29.6015 5.74838C29.6875 6.26881 29.7735 6.7888 29.8655 7.34122L28.7187 7.17528C29.1999 7.45768 29.8367 7.4035 30.1781 8.00455L28.7316 7.86293C28.7282 7.88852 28.7243 7.91411 28.7209 7.93971C29.1706 8.02502 29.6238 8.10138 30.0697 8.19565C30.6287 8.31381 31.2092 8.38633 31.7333 8.59578C32.0567 8.72375 32.313 9.05307 32.5503 9.33205C32.6118 9.40372 32.531 9.64985 32.4497 9.77356C32.3534 9.92456 32.1861 10.0304 32.0472 10.1553ZM18.5401 9.28684L19.1631 9.97575C19.0496 9.71085 18.9082 9.48264 19.1842 9.21261C19.2431 9.15502 19.118 8.91401 19.0776 8.75489L18.9731 8.78134C19.0032 8.90931 19.0337 9.03728 19.0703 9.19171L18.5401 9.28684ZM18.8355 14.1413L18.8819 14.2658L21.2718 13.6183C21.2671 13.5957 21.2619 13.5756 21.2567 13.5509L18.8355 14.1413ZM18.1806 7.32842L18.0645 7.45299L18.946 8.13551L19.0144 8.05573L18.1806 7.32842ZM22.8408 9.74668L22.8099 9.82261L23.9923 10.3575L24.0465 10.2274L22.8408 9.74668Z" fill="#FF0037"/>
</svg>
