<svg width="20" height="20" viewBox="0 0 20 20" fill="none" xmlns="http://www.w3.org/2000/svg">
<path d="M18.0001 12V19C18.0001 19.2652 17.8947 19.5196 17.7072 19.7071C17.5196 19.8946 17.2653 20 17.0001 20H3.00006C2.73484 20 2.48049 19.8946 2.29295 19.7071C2.10542 19.5196 2.00006 19.2652 2.00006 19V12H18.0001ZM12.5001 1C13.0907 0.999802 13.6718 1.14908 14.1892 1.43393C14.7066 1.71879 15.1436 2.12995 15.4593 2.62914C15.775 3.12832 15.9593 3.69929 15.9949 4.28886C16.0305 4.87843 15.9164 5.46743 15.6631 6.001L19.0001 6C19.2653 6 19.5196 6.10536 19.7072 6.2929C19.8947 6.48043 20.0001 6.73479 20.0001 7V10C20.0001 10.2652 19.8947 10.5196 19.7072 10.7071C19.5196 10.8946 19.2653 11 19.0001 11H1.00006C0.734845 11 0.480491 10.8946 0.292954 10.7071C0.105418 10.5196 6.10352e-05 10.2652 6.10352e-05 10V7C6.10352e-05 6.73479 0.105418 6.48043 0.292954 6.2929C0.480491 6.10536 0.734845 6 1.00006 6L4.33706 6.001C3.98082 5.25268 3.90169 4.40221 4.11376 3.601C4.32584 2.7998 4.81535 2.09985 5.49516 1.62576C6.17497 1.15167 7.00096 0.934199 7.82609 1.01207C8.65123 1.08994 9.42195 1.4581 10.0011 2.051C10.3261 1.71753 10.7148 1.45268 11.144 1.27215C11.5733 1.09162 12.0344 0.999076 12.5001 1ZM7.50006 3C7.11485 3.00019 6.74447 3.14858 6.46568 3.41441C6.18688 3.68025 6.02105 4.04315 6.00254 4.42792C5.98403 4.81269 6.11425 5.18984 6.36624 5.48121C6.61822 5.77257 6.97264 5.95583 7.35606 5.993L7.50006 6H9.00006V4.5C9.00004 4.12712 8.86114 3.76761 8.61044 3.49158C8.35974 3.21556 8.01522 3.0428 7.64406 3.007L7.50006 3ZM12.5001 3L12.3561 3.007C12.0094 3.04021 11.6852 3.19298 11.4389 3.43911C11.1925 3.68525 11.0395 4.0094 11.0061 4.356L11.0001 4.5V6H12.5001L12.6441 5.993C13.0151 5.95703 13.3594 5.7842 13.61 5.50819C13.8605 5.23218 13.9993 4.87277 13.9993 4.5C13.9993 4.12724 13.8605 3.76783 13.61 3.49182C13.3594 3.21581 13.0151 3.04297 12.6441 3.007L12.5001 3Z" fill="#ECB559"/>
</svg>
