<svg width="38" height="50" viewBox="0 0 38 50" fill="none" xmlns="http://www.w3.org/2000/svg">
<path d="M36.972 26.352L2.52524 49.3165C2.28054 49.4794 1.99624 49.5728 1.70264 49.5868C1.40904 49.6009 1.11712 49.535 0.857991 49.3963C0.598856 49.2576 0.382206 49.0511 0.231113 48.799C0.0800208 48.5469 0.000146119 48.2585 -5.72205e-06 47.9645V2.03554C0.000146119 1.7416 0.0800208 1.45321 0.231113 1.20108C0.382206 0.948948 0.598856 0.74252 0.857991 0.603781C1.11712 0.465042 1.40904 0.399188 1.70264 0.413233C1.99624 0.427279 2.28054 0.520698 2.52524 0.683539L36.972 23.648C37.1945 23.7964 37.377 23.9975 37.5032 24.2333C37.6294 24.4692 37.6955 24.7325 37.6955 25C37.6955 25.2675 37.6294 25.5309 37.5032 25.7667C37.377 26.0026 37.1945 26.2036 36.972 26.352Z" fill="black"/>
</svg>
