<svg width="38" height="47" viewBox="0 0 38 47" fill="none" xmlns="http://www.w3.org/2000/svg">
<path fill-rule="evenodd" clip-rule="evenodd" d="M28.027 0C25.7021 0.0975 22.885 1.5486 21.2177 3.4994C19.7189 5.2319 18.4106 7.9968 18.7633 10.6479C21.359 10.851 24.0039 9.3305 25.6197 7.3787C27.2322 5.4234 28.324 2.7098 28.027 0ZM27.3698 46.1384C30.5199 46.0797 32.5151 43.2806 34.4439 40.4642C36.5572 37.3795 37.4905 34.3886 37.6298 33.9423C37.6375 33.9174 37.6428 33.9005 37.6457 33.8918C37.6443 33.8912 37.6404 33.8896 37.6342 33.8871C37.3319 33.7643 31.5005 31.396 31.4426 24.5494C31.3856 18.895 35.8996 16.0826 36.3953 15.7738C36.4124 15.7631 36.4247 15.7554 36.4319 15.7507C33.7157 11.7821 29.4864 11.238 27.9794 11.1758C25.7782 10.9534 23.6427 11.7941 21.8978 12.4809C20.789 12.9174 19.838 13.2918 19.1281 13.2918C18.338 13.2918 17.3609 12.9043 16.2643 12.4695C14.8291 11.9004 13.1892 11.2502 11.4962 11.2813C7.5748 11.34 3.9561 13.5615 1.9366 17.0726C-2.1416 24.1426 0.890803 34.619 4.8637 40.3515C6.8084 43.1552 9.1208 46.3107 12.1619 46.1971C13.5197 46.1426 14.486 45.7315 15.4854 45.3064C16.6404 44.815 17.8396 44.3048 19.7382 44.3048C21.5464 44.3048 22.69 44.7992 23.79 45.2747C24.8421 45.7295 25.8542 46.1671 27.3698 46.1384Z" fill="white"/>
</svg>
