<svg width="33" height="34" viewBox="0 0 33 34" fill="none" xmlns="http://www.w3.org/2000/svg">
<path fill-rule="evenodd" clip-rule="evenodd" d="M23.3376 0.382709C21.587 0.300601 21.0303 0.28418 16.5686 0.28418C12.1068 0.28418 11.5501 0.305528 9.79959 0.382709C8.04905 0.464817 6.86013 0.739058 5.81243 1.14631C4.71617 1.55805 3.72306 2.20425 2.90252 3.03973C2.06634 3.85969 1.42004 4.85297 1.00911 5.94964C0.601851 6.99733 0.32761 8.18626 0.245502 9.9368C0.163394 11.6873 0.146973 12.244 0.146973 16.7058C0.146973 21.1675 0.168321 21.7242 0.245502 23.4748C0.32761 25.2237 0.601851 26.4159 1.00911 27.4619C1.42118 28.558 2.06733 29.5511 2.90252 30.3719C3.72282 31.2076 4.716 31.8539 5.81243 32.2653C6.86013 32.6709 8.05069 32.9468 9.79959 33.0289C11.5501 33.111 12.1068 33.1274 16.5686 33.1274C21.0303 33.1274 21.587 33.1061 23.3376 33.0289C25.0865 32.9468 26.2787 32.6709 27.3247 32.2653C28.4206 31.8527 29.4135 31.2066 30.2346 30.3719C31.0707 29.5518 31.717 28.5585 32.1281 27.4619C32.5337 26.4142 32.8096 25.2237 32.8917 23.4748C32.9738 21.7242 32.9902 21.1675 32.9902 16.7058C32.9902 12.244 32.9688 11.6873 32.8917 9.9368C32.8096 8.1879 32.5337 6.99569 32.1281 5.94964C31.7158 4.85364 31.0697 3.86064 30.2346 3.03973C29.3216 2.12833 28.4086 1.56342 27.3247 1.14631C26.277 0.739058 25.0865 0.464817 23.3376 0.382709ZM8.35784 16.7057C8.35784 12.171 12.0339 8.49488 16.5686 8.49488C21.1033 8.49488 24.7794 12.171 24.7794 16.7057C24.7794 21.2404 21.1033 24.9165 16.5686 24.9165C12.0339 24.9165 8.35784 21.2404 8.35784 16.7057ZM27.2427 8.08434C27.2427 6.95067 26.3237 6.03164 25.19 6.03164C24.0563 6.03164 23.1373 6.95067 23.1373 8.08434C23.1373 9.21802 24.0563 10.137 25.19 10.137C26.3237 10.137 27.2427 9.21802 27.2427 8.08434ZM21.4951 16.7057C21.4951 13.9849 19.2895 11.7792 16.5686 11.7792C13.8478 11.7792 11.6422 13.9849 11.6422 16.7057C11.6422 19.4265 13.8478 21.6322 16.5686 21.6322C19.2895 21.6322 21.4951 19.4265 21.4951 16.7057Z" fill="#222124"/>
</svg>
