<svg width="34" height="34" viewBox="0 0 34 34" fill="none" xmlns="http://www.w3.org/2000/svg">
<path fill-rule="evenodd" clip-rule="evenodd" d="M0.970703 16.7058C0.970703 25.7754 8.32266 33.1274 17.3923 33.1274C26.462 33.1274 33.8139 25.7754 33.8139 16.7058C33.8139 7.63614 26.462 0.28418 17.3923 0.28418C8.32266 0.28418 0.970703 7.63614 0.970703 16.7058ZM12.3067 18.6156L12.2853 18.6271V18.6287L8.18483 17.3478C7.29807 17.0769 7.2915 16.466 8.38189 16.0292L24.365 9.85463C25.2929 9.47365 25.8184 9.95316 25.5178 11.1487L22.7968 23.9936C22.6063 24.9067 22.0562 25.1251 21.2909 24.703L17.1034 21.6026L15.1525 23.4878C15.1452 23.4949 15.1379 23.5018 15.1307 23.5088C14.9386 23.6935 14.7768 23.849 14.4792 23.8885C14.1722 23.9312 13.9193 23.8393 13.7353 23.3286L12.3067 18.6156Z" fill="#222124"/>
</svg>
