<svg width="32" height="33" viewBox="0 0 32 33" fill="none" xmlns="http://www.w3.org/2000/svg">
<path fill-rule="evenodd" clip-rule="evenodd" d="M4.22467 0.92627H27.9969C30.045 0.92627 31.7113 2.59255 31.7113 4.64068V28.4129C31.7113 30.461 30.045 32.1273 27.9969 32.1273H4.22467C2.17654 32.1273 0.510254 30.461 0.510254 28.4129V4.64068C0.510254 2.59255 2.17654 0.92627 4.22467 0.92627ZM24.5173 14.5639C24.6885 14.5632 24.8595 14.5545 25.0299 14.5379H25.0329V11.0687C22.3472 10.8723 20.1878 8.78054 19.9062 6.1025H16.9199L16.8887 20.6585C16.8887 22.4444 15.3115 23.8514 13.5256 23.8514C11.7401 23.8514 10.2926 22.404 10.2926 20.6184C10.2926 18.8329 11.7401 17.3854 13.5256 17.3854C13.6251 17.3854 13.7212 17.3985 13.8174 17.4117C13.8506 17.4162 13.8838 17.4208 13.9171 17.4248V14.3032C13.8862 14.3012 13.8554 14.2991 13.8245 14.2969C13.7255 14.29 13.6264 14.2831 13.5256 14.2831C10.0271 14.2831 7.19106 17.1192 7.19106 20.6177C7.19106 24.1162 10.0271 26.9522 13.5256 26.9522C17.0241 26.9522 19.8602 24.1162 19.8602 20.6177V12.047C20.8887 13.6178 22.6398 14.5642 24.5173 14.5639Z" fill="#222124"/>
</svg>
