<svg width="34" height="27" viewBox="0 0 34 27" fill="none" xmlns="http://www.w3.org/2000/svg">
<path fill-rule="evenodd" clip-rule="evenodd" d="M33.4162 13.7056C33.4162 13.7056 33.4162 7.59681 32.6657 4.67048C32.2536 3.05788 31.0351 1.78684 29.4832 1.35003C26.6768 0.568359 16.9946 0.568359 16.9946 0.568359C16.9946 0.568359 7.31735 0.568359 4.50597 1.35003C2.9607 1.78027 1.74057 3.05295 1.32347 4.67048C0.572998 7.59681 0.572998 13.7056 0.572998 13.7056C0.572998 13.7056 0.572998 19.8145 1.32347 22.7408C1.73565 24.3534 2.95413 25.6245 4.50597 26.0613C7.31735 26.8429 16.9946 26.8429 16.9946 26.8429C16.9946 26.8429 26.6768 26.8429 29.4832 26.0613C31.0285 25.631 32.2486 24.3583 32.6657 22.7408C33.4162 19.8145 33.4162 13.7056 33.4162 13.7056ZM23.5634 13.7057L13.7104 19.4533V7.95813L23.5634 13.7057Z" fill="#222124"/>
</svg>
